<!--?xml version="1.0" encoding="utf-8"?-->
<!-- Generator: Adobe Illustrator 22.1.0, SVG Export Plug-In . SVG Version: 6.00 Build 0)  -->
<svg version="1.1" id="_x35_" xmlns="http://www.w3.org/2000/svg" xmlns:xlink="http://www.w3.org/1999/xlink" x="0px" y="0px" viewBox="0 0 800 166.2" style="enable-background:new 0 0 800 166.2;" xml:space="preserve">
<style type="text/css">
	.st0{fill:#00345F;}
	.st1{fill:#FF683F;}
	.st2{fill:#DF2000;}
</style>
<g>
	<g>
		<path class="st0" d="M33.2,11.1c-3.6-1.6-6.4,2.7-3.3,8.7s8.4,30,9.3,44.8c0.9,14.8,3,28.4,17.3,30.6c-7.8,9.9-8.8,27.3,3.8,35.9
			c10.1,7,22.7,4,22.7,4c1.8,8.4,9.4,10,16,10.9c5.8,0.7,11.8,4.3,8.9,10.6c-1.9,4.2-9.9,3-10.3-0.5c-1-7.2-8.4-5.3-7.7,0.5
			c1.2,9.6,14.2,11.5,20.4,4.8c6.9-7.5,5.5-17.3-2.4-20.4c-6.4-2.5-17.5-2.6-19.2-5.8c-2.6-4.8,2.6-7.3,5.7-6.3
			c3,0.9,1.9,4.9,3.5,4.4c1.7-0.5,6.2-5,2.8-9.3c-3.4-4.3-8-1.4-7.6-2.8c2.1-4.5,1.2-9.3-4.3-11.2c-4-1-5.3,0-4.2,2.1
			c2.5,4.6,1,12.9-5.7,14.1c-12.3,2.2-21.4-4.5-19.2-17.7c1.7-9.9,7.6-13.5,11.7-14.3c4.1-0.8,4.3-3.2,4.3-3.2
			c-2.2-3.6-7.1-2.9-7.1-2.9c5.9-1.6,4-8.6,0.4-10.8c-1.7,6.5-3.7,9.6-9.7,10.9c-5.5,1.2-11.8-3-12.8-11.4c-1-8.5-0.2-14.8,5.2-19.3
			c5.4-4.5,10.4-9.1,8.4-12.8c-2-3.6-10-3.2-13.5,1.8c-1.7,0.5-3.6,1-1.9-1.3c1.7-2.3,4.5-12.4,1.4-20.2
			C43.2,16.9,40,14.2,33.2,11.1z"></path>
		<path class="st1" d="M76.2,112c-0.6,1.9-2.6,3-4.6,2.5c-1.9-0.6-3-2.6-2.5-4.6c0.6-1.9,2.6-3,4.6-2.5
			C75.7,108.1,76.8,110.1,76.2,112z"></path>
		<path class="st1" d="M59.4,76.2c-0.6,1.9-2.6,3-4.6,2.5c-1.9-0.6-3-2.6-2.5-4.6c0.6-1.9,2.6-3,4.6-2.5
			C58.9,72.2,60,74.3,59.4,76.2z"></path>
		<path class="st2" d="M36.6,72.6C35.1,66.5,35,50,31.5,38.3C28,26.6,21.5,7.9,13.4,2.5C5.3-2.9,0,5.9,7.8,13.5
			C15.5,21.2,23,29.8,23.7,33C12.3,22.9,8.2,31,13,34.1c4.8,3.1,12.7,10.1,13.9,13.8c-6.4-1.9-9.2,3.9-5.6,6.4
			C25,56.8,36.6,72.6,36.6,72.6z"></path>
		<path class="st2" d="M50.6,123.5c-5.5-5-5.9-16.4-1.7-23.3c2.3-4.2-5.1-3.4-6.2,2.1c-6.2-5.7-12.9-7.3-11-2.2
			C33.6,105.2,39.3,119,50.6,123.5z"></path>
	</g>
	<g>
		<path class="st0" d="M766.8,11.1c3.6-1.6,6.4,2.7,3.4,8.7c-3.1,6-8.4,30-9.3,44.8c-0.9,14.8-3,28.4-17.3,30.6
			c7.8,9.9,8.8,27.3-3.8,35.9c-10.1,7-22.7,4-22.7,4c-1.8,8.4-9.4,10-16,10.9c-5.8,0.7-11.8,4.3-8.9,10.6c1.9,4.2,9.9,3,10.3-0.5
			c1-7.2,8.4-5.3,7.7,0.5c-1.2,9.6-14.2,11.5-20.4,4.8c-6.9-7.5-5.5-17.3,2.4-20.4c6.4-2.5,17.5-2.6,19.2-5.8
			c2.6-4.8-2.6-7.3-5.7-6.3c-3,0.9-1.9,4.9-3.5,4.4c-1.7-0.5-6.2-5-2.8-9.3c3.4-4.3,8-1.4,7.6-2.8c-2.1-4.5-1.2-9.3,4.3-11.2
			c4-1,5.3,0,4.2,2.1c-2.5,4.6-1,12.9,5.7,14.1c12.3,2.2,21.4-4.5,19.2-17.7c-1.7-9.9-7.6-13.5-11.7-14.3c-4.1-0.8-4.3-3.2-4.3-3.2
			c2.2-3.6,7.1-2.9,7.1-2.9c-5.9-1.6-4-8.6-0.4-10.8c1.7,6.5,3.7,9.6,9.7,10.9c5.5,1.2,11.8-3,12.8-11.4c1-8.5,0.2-14.8-5.2-19.3
			c-5.4-4.5-10.4-9.1-8.4-12.8c2-3.6,10-3.2,13.5,1.8c1.7,0.5,3.6,1,1.9-1.3c-1.7-2.3-4.5-12.4-1.4-20.2
			C756.8,16.9,760,14.2,766.8,11.1z"></path>
		<path class="st1" d="M723.8,112c0.6,1.9,2.6,3,4.6,2.5c1.9-0.6,3-2.6,2.5-4.6c-0.6-1.9-2.6-3-4.6-2.5
			C724.3,108.1,723.2,110.1,723.8,112z"></path>
		<path class="st1" d="M740.6,76.2c0.6,1.9,2.6,3,4.6,2.5c1.9-0.6,3-2.6,2.5-4.6c-0.6-1.9-2.6-3-4.6-2.5
			C741.1,72.2,740,74.3,740.6,76.2z"></path>
		<path class="st2" d="M763.4,72.6c1.5-6.1,1.6-22.5,5.2-34.3c3.5-11.7,10-30.4,18.1-35.8c8.1-5.4,13.4,3.4,5.6,11
			S777,29.8,776.3,33c11.4-10.1,15.5-1.9,10.7,1.2c-4.8,3.1-12.7,10.1-13.9,13.8c6.4-1.9,9.2,3.9,5.6,6.4
			C775,56.8,763.4,72.6,763.4,72.6z"></path>
		<path class="st2" d="M749.4,123.5c5.5-5,5.9-16.4,1.7-23.3c-2.3-4.2,5.1-3.4,6.2,2.1c6.2-5.7,12.9-7.3,11-2.2
			C766.4,105.2,760.7,119,749.4,123.5z"></path>
	</g>
</g>
<g font-family="noto" id="svgTXT" font-size="86"><text x="49%" y="68.47%" fill="00345F" text-anchor="middle" font-weight="bolder" style="fill: rgb(0, 52, 95);">OPTION</text></g></svg>
